<?xml version="1.0" encoding="UTF-8" standalone="no"?>
<!-- Created with Inkscape (http://www.inkscape.org/) -->

<svg
   width="64"
   height="64"
   viewBox="0 0 16.933333 16.933333"
   version="1.1"
   id="svg5"
   inkscape:version="1.1 (c68e22c387, 2021-05-23)"
   sodipodi:docname="logo.svg"
   inkscape:export-filename="/home/marssola/Developer/marssola.github.io/assets/img/logo.png"
   inkscape:export-xdpi="96"
   inkscape:export-ydpi="96"
   xmlns:inkscape="http://www.inkscape.org/namespaces/inkscape"
   xmlns:sodipodi="http://sodipodi.sourceforge.net/DTD/sodipodi-0.dtd"
   xmlns="http://www.w3.org/2000/svg"
   xmlns:svg="http://www.w3.org/2000/svg">
  <sodipodi:namedview
     id="namedview7"
     pagecolor="#505050"
     bordercolor="#eeeeee"
     borderopacity="1"
     inkscape:pageshadow="0"
     inkscape:pageopacity="0"
     inkscape:pagecheckerboard="0"
     inkscape:document-units="px"
     showgrid="false"
     inkscape:zoom="9.9584205"
     inkscape:cx="27.213151"
     inkscape:cy="23.146241"
     inkscape:window-width="2560"
     inkscape:window-height="1029"
     inkscape:window-x="379"
     inkscape:window-y="22"
     inkscape:window-maximized="1"
     inkscape:current-layer="g33239" />
  <defs
     id="defs2" />
  <g
     inkscape:label="Camada 1"
     inkscape:groupmode="layer"
     id="layer1">
    <g
       id="g30"
       transform="matrix(0.37041667,0,0,0.37041667,0.42333328,0.23812495)">
      <g
         id="g33239"
         transform="translate(0,-1.9784703)">
        <path
           d="M 6.1298692,7.7641844 H 41.102039 c 0,0 2.040817,0 2.040817,2.0168064 V 35.999478 L 37.2987,42.049898 H 2.3265307 c 0,0 -2.04081646,0 -2.04081646,-2.016807 V 13.814603 Z"
           style="opacity:0.2;stroke-width:1.42858;fill:#ffffff"
           id="path9" />
        <path
           d="M 6.1298692,6.3356129 H 41.102039 c 0,0 2.040817,0 2.040817,2.0168065 V 34.570907 L 37.2987,40.621326 H 2.3265307 c 0,0 -2.04081646,0 -2.04081646,-2.016805 V 12.386032 Z"
           style="fill:#6aafff;fill-opacity:1;stroke-width:1.42858"
           id="path11" />
        <g
           aria-label="MM"
           id="text2739"
           style="font-size:19.0475px;line-height:1.25;stroke-width:1.02041">
          <path
             d="m 9.6572233,17.592818 q 0.3428547,0.628568 0.7809477,1.561895 0.45714,0.91428 0.933327,1.999988 0.495235,1.06666 0.971423,2.190462 0.476187,1.123803 0.895232,2.114273 0.419045,-0.99047 0.895233,-2.114273 0.476187,-1.123802 0.952375,-2.190462 0.495235,-1.085708 0.933327,-1.999988 0.45714,-0.933327 0.799995,-1.561895 h 2.704746 q 0.190475,1.314278 0.342855,2.952363 0.171427,1.619037 0.285712,3.390455 0.133333,1.75237 0.22857,3.523787 0.114285,1.771418 0.190475,3.333313 h -2.89522 q -0.05714,-1.923798 -0.15238,-4.19045 -0.09524,-2.266653 -0.285713,-4.5714 -0.342855,0.799995 -0.7619,1.771417 -0.419045,0.971423 -0.83809,1.942845 -0.399997,0.971423 -0.780947,1.866655 -0.38095,0.876185 -0.647615,1.504753 h -2.076178 q -0.266665,-0.628568 -0.647615,-1.504753 -0.38095,-0.895232 -0.799995,-1.866655 -0.399997,-0.971422 -0.8190422,-1.942845 -0.4190451,-0.971422 -0.7619001,-1.771417 -0.190475,2.304747 -0.2857125,4.5714 -0.095237,2.266652 -0.15238,4.19045 H 5.7715331 q 0.07619,-1.561895 0.1714275,-3.333313 0.114285,-1.771417 0.22857,-3.523787 0.1333325,-1.771418 0.2857125,-3.390455 0.1714276,-1.638085 0.3619026,-2.952363 z"
             style="font-weight:bold;font-family:Ubuntu;-inkscape-font-specification:'Ubuntu Bold';fill:#ffffff"
             id="path12" />
          <path
             d="m 26.742819,17.592818 q 0.342855,0.628568 0.780948,1.561895 0.45714,0.91428 0.933327,1.999988 0.495235,1.06666 0.971423,2.190462 0.476187,1.123803 0.895232,2.114273 0.419045,-0.99047 0.895233,-2.114273 0.476187,-1.123802 0.952375,-2.190462 0.495235,-1.085708 0.933328,-1.999988 0.45714,-0.933327 0.799995,-1.561895 h 2.704745 q 0.190475,1.314278 0.342855,2.952363 0.171427,1.619037 0.285712,3.390455 0.133333,1.75237 0.22857,3.523787 0.114285,1.771418 0.190475,3.333313 h -2.89522 q -0.05714,-1.923798 -0.15238,-4.19045 -0.09524,-2.266653 -0.285712,-4.5714 -0.342855,0.799995 -0.7619,1.771417 -0.419045,0.971423 -0.83809,1.942845 -0.399998,0.971423 -0.780948,1.866655 -0.38095,0.876185 -0.647615,1.504753 h -2.076178 q -0.266665,-0.628568 -0.647615,-1.504753 -0.38095,-0.895232 -0.799995,-1.866655 -0.399997,-0.971422 -0.819042,-1.942845 -0.419045,-0.971422 -0.7619,-1.771417 -0.190475,2.304747 -0.285713,4.5714 -0.09524,2.266652 -0.15238,4.19045 h -2.89522 q 0.07619,-1.561895 0.171428,-3.333313 0.114285,-1.771417 0.22857,-3.523787 0.133332,-1.771418 0.285712,-3.390455 0.171428,-1.638085 0.361903,-2.952363 z"
             style="font-weight:bold;font-family:Ubuntu;-inkscape-font-specification:'Ubuntu Bold';fill:#ffffff"
             id="path14" />
        </g>
      </g>
    </g>
  </g>
</svg>
